<?xml version="1.0" encoding="UTF-8" standalone="no"?>
<!DOCTYPE svg PUBLIC "-//W3C//DTD SVG 1.1//EN" "http://www.w3.org/Graphics/SVG/1.1/DTD/svg11.dtd">
<svg width="100%" height="100%" viewBox="0 0 544 544" version="1.1" xmlns="http://www.w3.org/2000/svg" xmlns:xlink="http://www.w3.org/1999/xlink" xml:space="preserve" xmlns:serif="http://www.serif.com/" style="fill-rule:evenodd;clip-rule:evenodd;stroke-linejoin:round;stroke-miterlimit:2;">
    <g transform="matrix(1,0,0,1,-241,0)">
        <path d="M425.672,424.767C416.653,420.626 412.582,413.834 412.653,404.354C412.732,393.856 412.52,383.354 412.734,372.86C412.811,369.098 411.819,367.654 407.811,367.438C394.989,366.746 391.695,362.984 391.69,350.011C391.685,337.179 391.643,324.347 391.705,311.516C391.751,301.976 396.985,296.575 406.609,296.789C411.526,296.898 412.992,295.189 412.766,290.457C412.432,283.474 412.609,276.462 412.701,269.464C412.851,257.91 421.121,249.727 432.725,249.703C456.222,249.655 479.719,249.669 503.216,249.708C506.301,249.714 508.79,249.635 508.775,245.389C508.679,219.593 508.727,193.797 508.382,167.889C503.201,177.918 498.395,188.104 492.148,197.436C486.142,206.409 478.538,213.254 467.01,214.478C444.048,216.915 427.115,196.335 434.374,174.484C435.244,171.864 435.735,170.23 432.656,168.449C421.883,162.216 416.153,150.552 417.952,139.594C420.194,125.937 429.623,115.662 442.223,112.704C450.447,110.774 458.117,112.449 465.589,115.644C471.939,118.36 478.165,121.366 485.386,124.673C478.197,116.745 471.2,110.046 466.006,101.863C453.759,82.566 462.209,58.291 483.276,52.682C493.243,50.029 502.436,51.901 510.136,59.227C510.739,59.8 511.345,60.372 511.983,60.905C512.228,61.11 512.565,61.205 513.391,61.611C517.309,58.256 521.28,54.378 526.709,52.914C538.534,49.726 548.946,52.348 557.333,61.239C565.644,70.049 567.798,80.585 564.612,92.268C562.094,101.501 555.51,108.025 549.606,114.989C547.034,118.023 544.144,120.789 540.4,124.727C548.022,121.29 554.356,118.321 560.779,115.561C576.057,108.996 590.83,111.753 600.577,122.766C612.676,136.435 611.217,160.134 592.638,169.159C592.05,169.445 591.517,169.844 590.629,170.393C591.51,173.355 592.649,176.271 593.229,179.295C595.781,192.598 589.307,205.304 576.934,211.617C564.829,217.794 549.71,214.948 539.863,204.518C531.724,195.899 526.939,185.185 521.614,174.82C520.41,172.477 519.278,170.098 517.286,167.793C517.286,169.357 517.286,170.922 517.286,172.486C517.284,195.817 517.277,219.147 517.282,242.477C517.284,249.675 517.299,249.682 524.273,249.683C546.936,249.687 569.6,249.673 592.264,249.691C605.121,249.701 613.217,257.697 613.304,270.471C613.353,277.636 613.438,284.805 613.269,291.967C613.19,295.333 614.24,296.653 617.802,296.741C630.334,297.05 634.285,301.287 634.292,313.849C634.3,326.681 634.308,339.513 634.292,352.344C634.279,362.709 629.777,367.496 619.475,367.313C614.697,367.228 613.062,368.676 613.218,373.547C613.548,383.868 613.333,394.208 613.312,404.54C613.284,417.903 605.244,426.111 591.876,426.139C558.547,426.208 525.218,426.163 491.889,426.166C473.392,426.168 454.894,426.147 436.397,426.2C432.873,426.21 429.415,425.973 425.672,424.767M550.5,258.241C512.004,258.24 473.507,258.235 435.011,258.238C424.792,258.239 421.293,261.753 421.291,272.083C421.285,315.746 421.289,359.409 421.303,403.071C421.306,413.704 425.13,417.607 435.712,417.571C487.701,417.394 539.693,418.047 591.68,417.122C601.025,416.955 604.713,413.376 604.718,404.063C604.743,359.567 604.742,315.071 604.717,270.575C604.712,262.247 600.811,258.301 592.496,258.258C578.831,258.189 565.165,258.241 550.5,258.241M487.736,84.982C490.25,84.733 491.664,86.452 493.163,88.016C497.95,93.009 502.735,98.005 507.723,103.211C508.353,102.055 508.627,101.786 508.629,101.514C508.679,92.852 508.657,84.188 508.748,75.526C508.809,69.71 505.768,65.708 501.143,62.899C492.606,57.715 480.781,59.957 474.457,67.695C467.13,76.661 466.669,88.408 473.732,98.228C483.323,111.56 495.489,122.486 507.589,133.441C507.721,133.56 508.165,133.334 508.732,133.212C508.732,129.768 508.474,126.256 508.795,122.798C509.246,117.938 507.723,114.318 504.076,110.942C498.094,105.404 492.549,99.386 486.944,93.452C484.449,90.811 482.84,87.893 487.736,84.982M517.286,81.577L517.286,102.505C517.932,102.802 518.578,103.098 519.224,103.395C520.397,101.77 521.404,99.987 522.774,98.55C526.675,94.456 530.689,90.466 534.733,86.512C536.301,84.98 538.24,84.35 540.095,85.981C542.025,87.676 541.983,89.772 540.559,91.796C539.797,92.878 538.883,93.863 537.964,94.822C532.097,100.95 526.202,107.051 520.336,113.18C519.088,114.484 517.433,115.616 517.408,117.652C517.344,122.91 517.387,128.17 517.387,134.033C518.529,133.322 519.12,133.076 519.555,132.666C529.245,123.538 538.915,114.381 547.717,104.378C552.369,99.092 556.405,93.341 557.302,86.08C558.361,77.506 555.64,70.186 548.835,64.876C541.997,59.541 534.271,58.539 526.309,62.305C518.562,65.97 516.566,72.667 517.286,81.577M558.785,188.032C554.93,190.072 553.305,187.45 551.881,184.641C548.645,178.259 544.69,172.102 542.47,165.377C539.008,154.887 529.837,155.336 521.463,152.084C522.737,158.701 525.542,163.599 527.987,168.62C532.867,178.645 537.422,188.89 544.633,197.549C555.407,210.489 573.992,209.214 582.69,195.055C587.504,187.221 586.532,176.016 579.68,172.076C570.777,166.956 560.487,165.241 550.543,162.176C552.944,168.34 555.812,173.922 558.54,179.57C559.745,182.063 561.43,184.616 558.785,188.032M599.826,144.365C599.739,141.874 599.788,139.397 599.025,136.949C594.718,123.127 581.279,116.931 566.896,122.345C553.133,127.525 540.346,134.734 527.465,141.726C526.576,142.209 525.143,142.55 525.507,144.392C528.73,145.486 532.137,146.369 535.306,147.785C539.472,149.649 543.072,149.224 547.073,147.014C554.358,142.989 561.896,139.41 569.408,135.813C573.057,134.065 575.947,135.382 576.228,138.609C576.482,141.507 574.427,142.64 572.256,143.709C566.185,146.697 560.133,149.723 552.641,153.445C561.217,156.301 568.394,158.698 575.575,161.08C588.474,165.359 598.449,158.831 599.826,144.365M430.101,155.305C433.511,159.666 437.65,163.677 443.424,162.762C453.498,161.167 462.846,156.913 473.54,153.384C466.592,149.929 460.788,147.053 454.995,144.156C452.164,142.74 448.45,141.401 450.218,137.357C452.044,133.179 455.429,135.122 458.303,136.542C466.067,140.379 473.815,144.248 481.578,148.088C483.206,148.893 484.758,149.793 486.772,149.061C491.411,147.375 496.107,145.848 501.262,144.092C497.526,140.423 493.347,138.707 489.452,136.631C478.289,130.682 467.271,124.267 454.94,121.031C445.315,118.505 436.97,121.555 431.061,129.523C425.212,137.411 424.328,146.002 430.101,155.305M477.301,178.73C476.021,181.253 474.821,183.821 473.436,186.285C472.241,188.41 470.393,189.472 468,188.299C465.616,187.13 465.366,184.993 466.189,182.748C466.817,181.036 467.708,179.419 468.509,177.773C471.022,172.609 473.549,167.452 476.563,161.283C467.089,164.408 458.778,167.212 450.424,169.883C444.61,171.742 441.89,175.943 441.199,181.686C440.018,191.499 444.526,199.623 453.53,204.14C461.892,208.336 472.486,207.177 479.325,199.805C491.744,186.419 497.414,169.159 505.732,152.462C500.402,152.936 496.678,154.868 492.705,155.804C488.977,156.682 486.708,158.756 485.202,162.315C482.934,167.673 480.181,172.825 477.301,178.73M617.584,305.313C614.784,305.088 613.241,305.997 613.262,309.189C613.361,324.493 613.319,339.798 613.343,355.103C613.346,356.608 613.392,358.04 615.217,358.758C620.937,361.009 625.708,358.007 625.728,351.941C625.771,338.8 625.759,325.657 625.72,312.516C625.701,306.213 625.013,305.584 617.584,305.313M412.676,327.5C412.676,322.18 412.687,316.86 412.673,311.54C412.656,305.243 412.416,305.108 406.268,305.276C402.207,305.388 400.043,307.031 400.21,311.318C400.327,314.305 400.222,317.302 400.223,320.294C400.225,331.267 400.157,342.24 400.267,353.211C400.317,358.107 401.817,358.842 407.948,359.02C412.326,359.148 412.761,356.896 412.706,353.437C412.573,345.127 412.671,336.813 412.676,327.5Z" style="fill-rule:nonzero;"/>
    </g>
    <g transform="matrix(1,0,0,1,-241,0)">
        <path d="M533.947,508.404C530.686,507.864 528.331,506.215 525.541,504.832C523.998,505.867 523.399,508.108 520.764,508.222C514.798,508.482 513.734,507.786 513.729,501.78C513.717,485.956 513.852,470.131 513.633,454.31C513.572,449.928 514.975,448.543 519.349,448.542C523.786,448.54 525.307,450.111 525.048,454.399C524.79,458.684 524.992,462.997 524.992,468.073C536.241,461.425 546.168,462.502 554.526,471.367C560.643,477.855 561.216,490.505 556.618,498.665C552.409,506.134 543.817,509.917 533.947,508.404M525.982,480.602C523.832,485.173 524.155,489.637 526.864,493.827C529.709,498.228 535.369,500.024 540.498,498.379C545.102,496.904 548.559,491.706 548.522,486.318C548.479,480.251 545.088,475.575 539.594,474.008C534.271,472.49 529.793,474.479 525.982,480.602Z" style="fill-rule:nonzero;"/>
    </g>
    <g transform="matrix(1,0,0,1,-241,0)">
        <path d="M498.78,506.017C492.518,509.094 486.32,509.514 479.946,508.179C467.931,505.663 461.285,495.635 462.757,482.273C463.909,471.821 473.979,463.587 485.402,463.759C497.432,463.94 506.273,472.286 507.252,484.177C507.61,488.53 506.418,490.589 501.531,490.402C492.756,490.067 483.959,490.307 475.081,490.307C476.311,497.497 484.134,500.887 492.216,498.257C493.159,497.95 494.075,497.519 494.951,497.047C498.686,495.033 502.627,496.342 503.677,500.287C504.648,503.935 500.929,504.203 498.78,506.017M474.776,479.969C474.738,480.689 474.958,481.462 475.673,481.532C482.204,482.175 488.717,482.081 495.831,481.578C494.293,476.312 491.181,474.092 487.03,473.486C481.853,472.73 477.477,474.212 474.776,479.969Z" style="fill-rule:nonzero;"/>
    </g>
    <g transform="matrix(1,0,0,1,-241,0)">
        <path d="M609.333,490.123C606.966,501.897 599.423,508.114 587.04,508.892C576.734,509.539 567.123,503 564.026,493.235C560.965,483.585 564.495,472.975 572.85,467.8C581.531,462.425 590.593,462.343 599.371,467.447C607.862,472.385 610.281,480.38 609.333,490.123M596.705,493.07C597.231,491.677 597.917,490.322 598.258,488.886C600.276,480.379 592.45,472.012 584.208,473.801C578.457,475.05 574.993,478.939 574.376,484.84C573.762,490.72 576.475,495.803 581.371,497.945C586.699,500.274 592.051,498.762 596.705,493.07Z" style="fill-rule:nonzero;"/>
    </g>
    <g transform="matrix(1,0,0,1,-241,0)">
        <path d="M425.739,464.991C428.868,471.946 427.836,473.805 420.716,473.984C417.246,474.071 415.945,475.425 416.059,478.777C416.206,483.099 416.081,487.429 416.169,491.753C416.303,498.328 417.935,499.637 424.452,498.547C425.247,498.414 426.038,498.252 426.737,498.121C431.346,505.122 430.603,507.042 422.91,508.567C413.125,510.508 405.268,504.489 404.795,494.468C404.551,489.321 404.655,484.153 404.757,478.998C404.813,476.18 404.429,474.09 400.907,473.994C397.539,473.902 397.738,471.307 397.696,468.913C397.654,466.469 398.111,464.573 401.152,464.671C404.525,464.78 404.916,462.481 404.682,459.97C404.288,455.743 406.261,454.606 410.246,454.577C414.368,454.547 416.702,455.538 416.182,460.112C415.791,463.559 417.365,465.016 420.818,464.707C422.296,464.575 423.805,464.79 425.739,464.991Z" style="fill-rule:nonzero;"/>
    </g>
    <g transform="matrix(1,0,0,1,-241,0)">
        <path d="M434.794,475.038C434.796,473.051 434.712,471.55 434.82,470.063C434.978,467.889 434.133,464.804 437.684,464.826C440.753,464.844 445.014,462.638 446.036,468.486C449.543,466.528 452.781,464.48 456.646,464.038C459.027,463.765 461.364,463.95 461.1,467.024C460.88,469.602 463.121,473.186 458.482,474.418C447.595,477.308 446.319,479.042 446.302,490.138C446.295,494.622 446.111,499.115 446.336,503.587C446.564,508.135 443.739,508.137 440.516,508.16C437.173,508.184 434.659,507.817 434.743,503.43C434.923,494.134 434.796,484.831 434.794,475.038Z" style="fill-rule:nonzero;"/>
    </g>
    <g transform="matrix(1,0,0,1,-241,0)">
        <path d="M627.206,505.653C624.821,509.512 621.446,508.261 618.575,507.639C615.666,507.009 616.715,504.093 616.705,502.116C616.624,486.155 616.801,470.19 616.568,454.232C616.503,449.786 618.003,448.567 622.302,448.541C626.804,448.513 627.433,450.554 627.399,454.316C627.245,471.274 627.295,488.233 627.206,505.653Z" style="fill-rule:nonzero;"/>
    </g>
    <g transform="matrix(1,0,0,1,-241,0)">
        <path d="M468.295,365.365C470.976,363.967 473.489,364.024 475.987,364.024C500.641,364.019 525.296,363.998 549.951,364.037C558.761,364.051 559.325,364.675 559.329,373.333C559.331,378.33 559.229,383.33 559.342,388.325C559.434,392.389 557.354,394.151 553.565,394.154C526.578,394.182 499.591,394.186 472.604,394.151C469.699,394.147 466.975,393.075 466.883,389.805C466.672,382.324 466.876,374.831 466.989,367.344C466.997,366.772 467.617,366.21 468.295,365.365M497.5,385.692C512.632,385.694 527.764,385.697 542.895,385.698C551.197,385.698 551.44,385.332 550.859,376.907C550.674,374.222 549.652,373.016 546.96,372.911C524.357,372.028 501.748,372.561 479.142,372.512C476.127,372.505 474.946,373.892 475.213,376.818C475.334,378.137 475.338,379.486 475.214,380.805C474.876,384.404 476.261,385.923 480.041,385.752C485.517,385.505 491.013,385.691 497.5,385.692Z" style="fill-rule:nonzero;"/>
    </g>
    <g transform="matrix(1,0,0,1,-241,0)">
        <path d="M566.937,291.728C579.654,297.158 586.755,308.43 585.093,320.044C583.404,331.857 574.228,341.724 563.448,343.321C551.542,345.084 541.312,340.292 535.471,330.216C530.07,320.899 530.966,309.085 537.749,300.175C544.072,291.871 555.191,288.568 566.937,291.728M561.948,299.208C560.789,299.118 559.629,298.939 558.472,298.953C550.935,299.046 545.401,302.529 542.148,309.25C538.872,316.017 539.718,322.514 544.514,328.337C549.232,334.065 555.186,336.548 562.635,334.858C570.281,333.124 576.219,326.082 576.672,318.115C577.176,309.237 572.087,302.355 561.948,299.208Z" style="fill-rule:nonzero;"/>
    </g>
    <g transform="matrix(1,0,0,1,-241,0)">
        <path d="M473.704,343.109C456.36,344.909 444.839,337.255 441.586,322.12C438.545,307.97 447.501,294.282 461.99,290.936C475.558,287.803 489.714,296.481 493.228,310.087C497.01,324.732 489.382,337.87 473.704,343.109M483.087,307.56C477.017,299.35 468.038,296.576 459.953,300.413C452.215,304.085 447.862,312.709 449.762,320.601C452.445,331.743 462.847,337.808 473.395,334.379C483.906,330.963 488.33,319.466 483.087,307.56Z" style="fill-rule:nonzero;"/>
    </g>
</svg>
